<svg version="1" xmlns="http://www.w3.org/2000/svg" width="1338.667" height="1338.667" viewBox="0 0 1004.000000 1004.000000"><path d="M224 66.1c-25.2 2.9-51.4 12.5-73 26.6-39.8 26.1-71.9 72.8-84.9 123.6-6.9 26.8-8.1 41.2-8.1 98.9V361h366.2l-.5-53.8c-.4-57.8-.8-62.3-6.3-85.6-12.2-51.1-41.9-97.2-80.5-124.9-11.2-8-33.9-19.5-46.4-23.6-21.7-7-45.2-9.4-66.5-7zM492.1 277.1c-7.4 1.4-16.3 6.3-22 12-16.8 16.8-17.1 43.4-.6 60.4 9.4 9.7 20.9 14.2 34 13.2 21.8-1.5 38.7-18.4 40.2-40.2 2-28.2-23.8-50.9-51.6-45.4zM581.3 332.2c.4 57.2.7 60.8 5.7 84.3 11.8 54.8 45.2 105.5 87.6 133.2 18.3 11.9 41.4 21.2 61.9 24.9 13.7 2.5 42.3 2.5 55 .1 79.4-15.4 138.4-83.6 153.2-177.2 1.3-7.9 1.7-21.3 2-64.8l.5-54.7H580.8l.5 54.2zM461 638v242h83V396h-83v242z"/></svg>